<?xml version="1.0" encoding="UTF-8" standalone="no"?>
<!-- Created with Inkscape (http://www.inkscape.org/) -->

<svg
        version="1.1"
        id="svg94"
        width="40"
        height="40"
        viewBox="0 0 40.000002 40.000002"
        xmlns="http://www.w3.org/2000/svg">
    <g id="g100">
        <path
                style="fill:#ed792a;"
                d="M 7.4420154,31.689797 C 4.8135614,30.278595 2.8580364,27.930641 2.1002985,25.27613 1.9323954,24.687932 1.9216054,24.572136 1.9235244,23.378658 c 0.0017,-1.168038 0.01619,-1.323884 0.176305,-1.923045 0.217379,-0.813338 0.489601,-1.478631 0.871684,-2.130357 l 0.295976,-0.504848 0.695829,0.705016 c 1.331689,1.349265 2.788696,2.316594 4.378641,2.90704 0.268879,0.09986 0.512447,0.202649 0.541268,0.228435 0.02879,0.02578 0.03283,0.190498 0.0089,0.366026 -0.03557,0.261198 -0.07997,0.342812 -0.244748,0.449504 -0.428599,0.277528 -0.419172,0.20876 -0.495873,3.617592 -0.03833,1.702877 -0.0728,3.499455 -0.07661,3.992391 -0.0041,0.492937 -0.02597,0.895759 -0.04921,0.895156 -0.02325,-5.77e-4 -0.285938,-0.131893 -0.583729,-0.291779 z"
                id="path8414" />
        <path
                style="fill:#ed792a;"
                d="m 16.407739,31.0213 c 0.0087,-0.564692 0.04372,-2.330893 0.07794,-3.924898 0.0695,-3.2378 0.07202,-3.214079 -0.369177,-3.474393 -0.211603,-0.124837 -0.218697,-0.142121 -0.200084,-0.48716 l 0.01931,-0.35773 0.717006,-0.250285 c 2.98733,-1.042785 5.425953,-3.229832 6.846809,-6.140469 0.817021,-1.673671 1.199591,-3.343187 1.202038,-5.245622 5.77e-4,-0.510861 0.02318,-0.9287 0.05008,-0.928532 0.0269,1.95e-4 0.408724,0.174903 0.848525,0.388295 1.768833,0.85826 3.176319,2.084531 4.254245,3.706505 0.438239,0.659427 0.959087,1.646029 1.130355,2.141128 0.09593,0.277306 -0.03587,0.236171 1.311751,0.409518 2.27263,0.29234 4.447187,1.902339 5.506176,4.076661 1.012459,2.078776 1.034161,4.302206 0.06254,6.405269 -0.360719,0.780767 -0.789213,1.395731 -1.449357,2.080074 -0.852995,0.884265 -1.728987,1.449772 -2.892876,1.867538 -1.002702,0.359902 -1.170968,0.369091 -6.76132,0.369323 l -5.143757,1.97e-4 0.776524,-0.39128 c 1.03406,-0.521052 1.866262,-1.124939 2.697905,-1.957742 0.779301,-0.780393 1.292581,-1.467183 1.759847,-2.354754 0.282129,-0.535883 0.687342,-1.488489 0.633171,-1.488489 -0.01047,0 -0.413576,0.390483 -0.895699,0.867738 -2.081585,2.06057 -4.104297,3.430005 -6.791648,4.598125 -0.94939,0.412677 -3.063116,1.117074 -3.353616,1.117593 -0.02885,5.3e-5 -0.04535,-0.461925 -0.03668,-1.02661 z"
                id="path8412" />
        <path
                style="fill:#ed792a;"
                d="m 11.796634,19.686715 c -0.08962,-0.01305 -0.377936,-0.05568 -0.640697,-0.09445 -0.262756,-0.0388 -0.784944,-0.170122 -1.1604201,-0.291821 -1.8408045,-0.596635 -3.5438495,-1.904311 -3.5438495,-2.721128 0,-0.248197 0.267073,-0.576897 0.605783,-0.745551 0.725547,-0.361282 2.5210725,-0.659554 3.4093306,-0.566362 l 0.397484,0.0417 0.214075,-0.381322 c 0.62869,-1.119838 1.811713,-2.448359 2.923646,-3.283227 1.722076,-1.292989 4.205961,-2.169972 5.865279,-2.070853 1.206478,0.07205 1.52707,0.671922 1.318401,2.466841 -0.249485,2.145975 -1.10917,3.868395 -2.683021,5.375562 -1.256497,1.203263 -2.825711,1.961166 -4.587577,2.21573 -0.592937,0.08568 -1.711334,0.114654 -2.118434,0.05486 z m 0.537758,-0.06667 c -0.04481,-0.0181 -0.118144,-0.0181 -0.162958,0 -0.0448,0.0181 -0.0082,0.0329 0.08148,0.0329 0.08962,0 0.126295,-0.01487 0.08149,-0.0329 z m 0.814779,-0.0017 c -0.06273,-0.01642 -0.1654,-0.01642 -0.228136,0 -0.06275,0.01642 -0.01138,0.02983 0.114066,0.02983 0.12548,0 0.17681,-0.01335 0.114067,-0.02983 z"
                id="path8410" />
        <path
                style="fill:#ed792a;"
                d="m 8.8212774,38.842964 c 0.02255,-0.63634 0.08609,-3.503527 0.141121,-6.371529 0.05504,-2.867998 0.117236,-5.896512 0.1382095,-6.730023 l 0.0381,-1.515476 h 0.308604 0.3086 l 0.04263,-0.792414 c 0.02341,-0.435835 0.04261,-0.94365 0.04261,-1.128482 V 21.968971 L 9.1404399,21.747866 C 8.2626834,21.470895 6.9991254,20.835934 6.1909274,20.265685 c -0.340576,-0.240311 -0.988127,-0.80416 -1.439,-1.252998 -2.115316,-2.105786 -3.2449669,-4.823402 -3.2518939,-7.823122 -0.0073,-3.1183681 1.1769299,-5.909797 3.4286619,-8.0826094 1.122282,-1.0829555 2.749028,-2.0798613 4.130267,-2.53112401 2.8620776,-0.9350738 5.9362036,-0.7251221 8.5600036,0.58461811 3.107069,1.5509767 5.188329,4.2459957 5.983285,7.7477563 0.139878,0.616185 0.155371,0.837102 0.155371,2.216179 0,1.356142 -0.01734,1.612849 -0.151365,2.238866 -0.766833,3.582306 -3.072955,6.479355 -6.334301,7.957419 -0.650693,0.294897 -1.499478,0.590465 -1.880508,0.654841 -0.148406,0.02509 -0.281612,0.06504 -0.296012,0.08879 -0.01441,0.02377 -0.04765,0.549191 -0.07386,1.167609 l -0.04765,1.124381 h 0.344676 0.34467 l -0.04135,1.678435 c -0.02273,0.923137 -0.07505,3.511673 -0.116264,5.752295 l -0.07493,4.073866 -0.171199,0.259058 c -0.2608,0.39464 -1.413624,1.53449 -1.971491,1.949304 -0.62629,0.46569 -1.497093,0.964728 -1.608691,0.921903 -0.04678,-0.01793 -0.06967,-0.0078 -0.05085,0.02272 0.0492,0.07965 -0.456755,0.293428 -0.5533,0.233765 -0.05586,-0.03452 -0.0644,-0.02331 -0.02758,0.03632 0.03904,0.06321 0.02341,0.07483 -0.0585,0.04343 -0.06152,-0.02359 -0.0954,-0.01632 -0.07528,0.01627 0.04813,0.07782 -0.395921,0.223181 -0.494879,0.162027 -0.04579,-0.02833 -0.05917,-0.01919 -0.03323,0.02272 0.02527,0.04094 -0.045,0.09786 -0.169181,0.137039 -0.213164,0.06726 -1.3315561,0.334559 -1.3998761,0.334559 -0.02006,0 -0.01798,-0.52064 0.0046,-1.156979 z M 13.882475,20.574691 c 1.168818,-0.180023 1.946102,-0.420188 2.965806,-0.91638 2.313479,-1.125746 4.102431,-3.216736 4.875377,-5.698512 0.330059,-1.059774 0.400827,-1.553272 0.401907,-2.802824 C 22.126143,10.167889 22.103015,9.877867 21.97634,9.309483 21.526056,7.2888003 20.756295,5.8759337 19.325216,4.4434236 17.236104,2.3522271 14.536973,1.4146556 11.549632,1.7424837 8.8735504,2.0361486 6.3168334,3.5858063 4.8232274,5.8194221 4.0971144,6.905286 3.7301344,7.7335164 3.4031354,9.024394 c -0.167336,0.660577 -0.176767,0.778375 -0.173315,2.165171 0.0035,1.424433 0.0094,1.488143 0.203517,2.216187 0.372538,1.397137 0.826818,2.347251 1.640912,3.431961 1.547541,2.061959 3.897155,3.421725 6.4942466,3.758342 0.419254,0.05435 1.911941,0.04053 2.313979,-0.0214 z M 1.6061464,11.694824 c -0.0181,-0.0448 -0.0329,-0.0082 -0.0329,0.08148 0,0.08962 0.01487,0.126296 0.0329,0.08149 0.0181,-0.04481 0.0181,-0.118141 0,-0.162957 z m 0,-1.238454 c -0.0181,-0.0448 -0.0329,-0.0082 -0.0329,0.08148 0,0.08961 0.01487,0.126295 0.0329,0.08148 0.0181,-0.0448 0.0181,-0.118128 0,-0.162949 z M 12.857091,0.06599669 c -0.04413,-0.017874 -0.132123,-0.018907 -0.19555,-0.00228 -0.06342,0.01654 -0.02731,0.031108 0.08024,0.032443 0.107563,0.00115 0.159443,-0.012141 0.115306,-0.030075 z"
                id="path280" />
    </g>
<!--    <defs>-->
<!--        <linearGradient id="paint0_linear" x1="2.94192" y1="4.89955" x2="37.7772" y2="39.7345" gradientUnits="userSpaceOnUse">-->
<!--            <stop offset="0.15937" stop-color="#ed792a"/>-->
<!--            <stop offset="0.93739" stop-color="#8e4819"/>-->
<!--        </linearGradient>-->
<!--    </defs>-->
</svg>
